Coordinates
version=1
nRows=28
nColumns=33
inDegrees=yes

Units are S.I. units (second, meters, Newtons, ...)
Angles are in degrees.

endheader
time	ground_thorax_rot_x	ground_thorax_rot_y	ground_thorax_rot_z	ground_thorax_tx	ground_thorax_ty	ground_thorax_tz	clav_prot_r	clav_elev_r	scapula_abduction_r	scapula_elevation_r	scapula_upward_rot_r	scapula_winging_r	shoulder_elv_r	plane_of_elev_r	axial_rot_r	elbow_flexion_r	pro_sup_r	wrist_flex_r	wrist_dev_r	clav_prot_l	clav_elev_l	scapula_abduction_l	scapula_elevation_l	scapula_upward_rot_l	scapula_winging_l	shoulder_elv_l	plane_of_elev_l	axial_rot_l	elbow_flexion_l	pro_sup_l	wrist_flex_l	wrist_dev_l	
3.2900	40.816039	3.344181	12.453435	-194.377882	845.674742	-10.128937	5.295668	44.722873	42.888120	44.713721	-0.142017	1329.454613	-659.014289	16.789544	-180.000000	1807.409247	-102.588139	17.506473	11.790907	10.945522	-45.000000	-33.586682	45.000000	-45.000000	96.983790	-2618.258271	146.014515	136.519498	1089.468757	-333.879545	9.564686	-21.470056	
3.3000	40.889432	3.257334	12.160756	-194.857141	846.861349	-10.230474	5.159969	44.549525	43.061057	44.757322	0.442756	1329.170662	-658.872921	16.778937	-180.000000	1807.455711	-101.762272	17.599267	11.688027	11.028753	-45.000000	-33.666970	45.000000	-45.000000	97.009475	-2618.173802	145.918100	136.666536	1089.571571	-333.199907	9.434466	-21.532410	
3.3100	40.956397	3.209430	11.927122	-195.279112	848.008621	-10.320391	5.040408	44.357215	43.183275	44.816381	0.959132	1328.952883	-658.763475	16.758250	-180.000000	1807.487999	-100.933143	17.711863	11.560812	11.124168	-45.000000	-33.751972	45.000000	-45.000000	97.049513	-2618.104333	145.857535	136.772582	1089.663303	-332.507647	9.293173	-21.589314	
3.3200	41.005958	3.214406	11.755281	-195.575389	849.068822	-10.384207	4.918633	44.314407	43.259462	44.870674	1.327098	1328.805269	-658.681431	16.747040	-180.000000	1807.492832	-100.090334	17.805045	11.469748	11.220849	-45.000000	-33.836933	45.000000	-45.000000	97.090017	-2618.017278	145.840467	136.749806	1089.776619	-331.779262	9.159697	-21.645297	
3.3300	41.046519	3.253051	11.636497	-195.741550	850.037900	-10.420957	4.820444	44.339739	43.331932	44.918946	1.578707	1328.690506	-658.621547	16.750130	-180.000000	1807.475646	-99.209261	17.894807	11.391842	11.313135	-45.000000	-33.910089	45.000000	-45.000000	97.129069	-2617.927400	145.854908	136.624969	1089.898589	-331.004388	9.022519	-21.695774	
3.3400	41.078935	3.308090	11.556299	-195.765427	850.905591	-10.427928	4.734627	44.400475	43.427867	44.957494	1.758338	1328.594853	-658.562005	16.747658	-180.000000	1807.434888	-98.272191	17.987909	11.317472	11.398695	-45.000000	-33.970210	45.000000	-45.000000	97.170078	-2617.842913	145.884361	136.429334	1090.022618	-330.187124	8.875433	-21.736068	
3.3500	41.106506	3.368724	11.488457	-195.653369	851.673548	-10.406349	4.658514	44.458975	43.525938	44.983043	1.934811	1328.509762	-658.498738	16.751595	-180.000000	1807.387152	-97.262938	18.083852	11.244939	11.471960	-45.000000	-34.030714	45.000000	-45.000000	97.201660	-2617.766206	145.913287	136.203760	1090.147212	-329.343438	8.718376	-21.765578	
3.3600	41.137716	3.390603	11.395867	-195.420528	852.349165	-10.359475	4.609884	44.484172	43.709867	44.996726	2.185583	1328.341729	-658.413163	16.762955	-180.000000	1807.343843	-96.140993	18.187068	11.164414	11.512243	-45.000000	-34.069564	45.000000	-45.000000	97.212026	-2617.698159	145.922849	135.989553	1090.269524	-328.478702	8.547719	-21.783728	
3.3700	41.170434	3.370021	11.256358	-195.082731	852.940030	-10.290911	4.568600	44.490293	43.943208	45.000000	2.544334	1328.085836	-658.324432	16.802120	-180.000000	1807.316472	-94.877380	18.296138	11.084590	11.529362	-45.000000	-34.106949	45.000000	-45.000000	97.188844	-2617.624004	145.906163	135.814609	1090.406360	-327.608214	8.375248	-21.800698	
3.3800	41.199842	3.312637	11.081284	-194.656003	853.454239	-10.204494	4.514175	44.481031	44.215068	45.000000	3.002184	1327.762682	-658.231868	16.845016	-180.000000	1807.291709	-93.459882	18.418314	10.997057	11.534101	-45.000000	-34.143909	45.000000	-45.000000	97.142126	-2617.543462	145.867096	135.695593	1090.551784	-326.750538	8.204585	-21.816427	
3.3900	41.220769	3.254882	10.897646	-194.156548	853.900184	-10.103977	4.433683	44.470004	44.440927	45.000000	3.502276	1327.452455	-658.150557	16.894063	-180.000000	1807.264314	-91.902238	18.550954	10.902107	11.546772	-45.000000	-34.203097	45.000000	-45.000000	97.079874	-2617.461637	145.821089	135.627856	1090.702006	-325.926847	8.042674	-21.831732	
3.4000	41.234332	3.191267	10.716540	-193.599675	854.286951	-9.992492	4.350170	44.458631	44.668262	45.000000	4.010893	1327.135031	-658.068780	16.937405	-180.000000	1807.226562	-90.202344	18.692188	10.794767	11.555775	-45.000000	-34.259156	45.000000	-44.999999	97.008145	-2617.378786	145.768770	135.598073	1090.844613	-325.129739	7.884566	-21.840481	
3.4100	41.237776	3.144827	10.554709	-193.000565	854.623545	-9.872561	4.251290	44.444881	44.835966	45.000000	4.500332	1326.876537	-657.991719	16.970878	-180.000000	1807.178709	-88.384437	18.838335	10.673744	11.574889	-45.000000	-34.332537	45.000000	-44.999999	96.937633	-2617.303314	145.714915	135.608460	1090.978533	-324.363483	7.729587	-21.842339	
3.4200	41.228894	3.117887	10.420910	-192.372539	854.919570	-9.745908	4.133160	44.422721	44.941815	45.000000	4.963387	1326.702550	-657.908868	16.971569	-180.000000	1807.114641	-86.490082	18.986624	10.537147	11.601947	-45.000000	-34.422073	45.000000	-44.999998	96.880091	-2617.236316	145.658543	135.658266	1091.100175	-323.628935	7.573093	-21.834231	
3.4300	41.212867	3.115118	10.317302	-191.727526	855.184990	-9.614057	4.003067	44.395953	44.971347	45.000000	5.396653	1326.625858	-657.818134	16.948808	-180.000000	1807.046094	-84.568015	19.128177	10.389769	11.635799	-45.000000	-34.530811	45.000000	-44.999997	96.833653	-2617.189518	145.603168	135.742283	1091.203988	-322.924802	7.415664	-21.815700	
3.4400	41.191830	3.110534	10.226784	-191.074656	855.430886	-9.478753	3.880494	44.369341	44.991827	45.000000	5.812937	1326.580887	-657.720697	16.909187	-180.000000	1806.980156	-82.648652	19.259405	10.237588	11.662469	-45.000000	-34.641546	45.000000	-44.999995	96.792815	-2617.145367	145.544857	135.851875	1091.306336	-322.233103	7.255833	-21.793175	
3.4500	41.168663	3.110811	10.151318	-190.421737	855.668735	-9.342949	3.750797	44.345086	45.000000	45.000000	6.201748	1326.573891	-657.615303	16.853886	-180.000000	1806.917876	-80.772947	19.378571	10.084235	11.694959	-45.000000	-34.760382	45.000000	-44.999991	96.756865	-2617.111075	145.486014	135.988050	1091.404205	-321.550621	7.099084	-21.769788	
3.4600	41.140631	3.111145	10.091074	-189.773788	855.911143	-9.210878	3.615955	44.317930	45.000000	45.000000	6.551415	1326.601718	-657.511081	16.787502	-180.000000	1806.856651	-78.987974	19.491868	9.931588	11.735850	-45.000000	-34.890119	45.000000	-44.999983	96.732073	-2617.079733	145.430165	136.143292	1091.503997	-320.880193	6.947436	-21.749416	
3.4700	41.113688	3.107002	10.030763	-189.134148	856.171392	-9.088084	3.495607	44.292781	45.000000	45.000000	6.883629	1326.624558	-657.411189	16.736418	-180.000000	1806.807730	-77.308405	19.600784	9.784247	11.773680	-45.000000	-35.015287	45.000000	-44.999970	96.703251	-2617.049580	145.368642	136.307277	1091.589997	-320.216331	6.804351	-21.729515	
3.4800	41.084234	3.094705	9.967715	-188.503928	856.463863	-8.980496	3.383695	44.257648	45.000000	45.000000	7.199542	1326.642411	-657.319792	16.699883	-180.000000	1806.766664	-75.734279	19.710180	9.639623	11.810320	-45.000000	-35.142495	45.000000	-44.999946	96.677780	-2617.013682	145.303011	136.481579	1091.669666	-319.558759	6.669322	-21.712058	
3.4900	41.056972	3.074646	9.890176	-187.883045	856.803742	-8.893412	3.291948	44.223204	45.000000	45.000000	7.518121	1326.630594	-657.239448	16.695646	-180.000000	1806.739397	-74.247873	19.821462	9.499163	11.841158	-45.000000	-35.262838	45.000000	-44.999904	96.645027	-2616.968641	145.225934	136.662136	1091.737063	-318.904956	6.543277	-21.695575	
3.5000	41.028629	3.043631	9.803601	-187.269637	857.207483	-8.829939	3.203109	44.176686	45.000000	45.000000	7.835381	1326.610872	-657.165143	16.710150	-180.000000	1806.717530	-72.834438	19.937910	9.358805	11.872421	-45.000000	-35.386309	45.000000	-44.999827	96.617438	-2616.915475	145.143250	136.857247	1091.801872	-318.259736	6.425356	-21.682131	
3.5100	41.003059	3.005182	9.699528	-186.660540	857.692437	-8.790171	3.124766	44.138301	45.000000	45.000000	8.164282	1326.566831	-657.096261	16.752224	-180.000000	1806.706555	-71.476342	20.059023	9.220818	11.903843	-45.000000	-35.506099	45.000000	-44.999691	96.584186	-2616.847292	145.046119	137.065308	1091.858921	-317.625632	6.315435	-21.670049	
3.5200	40.972934	2.961781	9.590290	-186.051713	858.276520	-8.770664	3.039377	44.098000	45.000000	45.000000	8.515955	1326.514869	-657.021613	16.800899	-180.000000	1806.700001	-70.148449	20.178957	9.082204	11.934862	-45.000000	-35.627237	45.000000	-44.999446	96.556453	-2616.754514	144.943220	137.300668	1091.923873	-317.003837	6.208907	-21.661447	
3.5300	40.939813	2.916340	9.475399	-185.437537	858.977243	-8.765374	2.949269	44.049451	45.000000	45.000000	8.871931	1326.468213	-656.943195	16.848023	-180.000000	1806.693943	-68.856861	20.304040	8.938969	11.973364	-45.000000	-35.758480	45.000000	-44.999008	96.539730	-2616.641978	144.823419	137.571815	1091.995740	-316.402164	6.100756	-21.651177	
3.5400	40.902702	2.863568	9.361931	-184.810115	859.810902	-8.766995	2.860098	43.985770	45.000000	45.000000	9.236561	1326.426995	-656.861150	16.901858	-180.000000	1806.689544	-67.612524	20.429785	8.794688	12.012313	-45.000000	-35.897070	45.000000	-44.998223	96.534346	-2616.506548	144.696174	137.879663	1092.078584	-315.822409	5.994199	-21.644914	
3.5500	40.864380	2.808590	9.249540	-184.158421	860.790720	-8.769328	2.772017	43.924363	45.000000	45.000000	9.596483	1326.394735	-656.775840	16.960519	-180.000000	1806.682715	-66.439483	20.562034	8.648745	12.055272	-45.000000	-36.044106	45.000000	-44.996817	96.536829	-2616.351837	144.554698	138.217673	1092.165651	-315.265010	5.887258	-21.638891	
3.5600	40.824018	2.751350	9.139927	-183.468668	861.925889	-8.768104	2.696338	43.883522	45.000000	45.000000	9.985153	1326.341846	-656.682402	17.047707	-180.000000	1806.684571	-65.334804	20.690099	8.510940	12.086922	-45.000000	-36.184487	45.000000	-44.994300	96.536961	-2616.159069	144.410383	138.578413	1092.266394	-314.715016	5.781237	-21.639819	
